<svg width="123" height="70" viewBox="0 0 123 70" fill="none" xmlns="http://www.w3.org/2000/svg">
<path d="M54.2985 38.8H54.4585V39H49.9585V38.8H50.1385C50.4185 38.8 50.6252 38.7133 50.7585 38.54C50.9052 38.3533 50.9785 38.18 50.9785 38.02C50.9785 37.86 50.9518 37.7 50.8985 37.54L49.6185 34.14H44.2185L42.8785 37.56C42.8252 37.72 42.7985 37.88 42.7985 38.04C42.7985 38.1867 42.8652 38.3533 42.9985 38.54C43.1452 38.7133 43.3585 38.8 43.6385 38.8H43.8185V39H39.7985V38.8H39.9785C40.3118 38.8 40.6385 38.6933 40.9585 38.48C41.2785 38.2667 41.5385 37.9533 41.7385 37.54L46.2585 26.78C46.7518 25.7 46.9985 25.0133 46.9985 24.72H47.1785L52.5385 37.54C52.7252 37.9533 52.9785 38.2667 53.2985 38.48C53.6185 38.6933 53.9518 38.8 54.2985 38.8ZM44.4585 33.54H49.3785L46.9785 27.12L44.4585 33.54Z" fill="#78BFAE"/>
<path d="M61.5368 25.62H60.2568V37.54C60.2568 37.8867 60.3768 38.1867 60.6168 38.44C60.8701 38.68 61.1768 38.8 61.5368 38.8H61.7768L61.7968 39H57.4168V38.8H57.6768C58.0235 38.8 58.3168 38.68 58.5568 38.44C58.8101 38.2 58.9435 37.9067 58.9568 37.56V26.46C58.9435 26.1133 58.8101 25.82 58.5568 25.58C58.3168 25.3267 58.0235 25.2 57.6768 25.2H57.4168V25H62.8168C64.0301 25 64.9835 25.34 65.6768 26.02C66.3701 26.6867 66.7168 27.56 66.7168 28.64C66.7168 29.7067 66.3835 30.6333 65.7168 31.42C65.0635 32.1933 64.2635 32.58 63.3168 32.58C63.5168 32.6733 63.7501 32.86 64.0168 33.14C64.2968 33.4067 64.5435 33.6867 64.7568 33.98C65.9035 35.62 66.6501 36.6333 66.9968 37.02C67.3435 37.3933 67.5901 37.6533 67.7368 37.8C67.8835 37.9333 68.0435 38.0667 68.2168 38.2C68.3901 38.3333 68.5635 38.44 68.7368 38.52C69.1235 38.7067 69.5368 38.8 69.9768 38.8V39H68.8768C68.3035 39 67.7701 38.9 67.2768 38.7C66.7835 38.4867 66.4101 38.2733 66.1568 38.06C65.9168 37.8333 65.7035 37.62 65.5168 37.42C65.3435 37.2067 64.8501 36.5133 64.0368 35.34C63.2235 34.1667 62.7501 33.5 62.6168 33.34C62.4835 33.1667 62.3435 33 62.1968 32.84C61.7701 32.3867 61.3435 32.16 60.9168 32.16V31.96C61.0235 31.9733 61.1635 31.98 61.3368 31.98C61.5101 31.98 61.7235 31.9733 61.9768 31.96C63.6301 31.92 64.6701 31.2267 65.0968 29.88C65.1768 29.6133 65.2168 29.3667 65.2168 29.14C65.2168 28.9 65.2168 28.7467 65.2168 28.68C65.1901 27.7867 64.9568 27.0667 64.5168 26.52C64.0768 25.9733 63.4835 25.68 62.7368 25.64C62.4168 25.6267 62.0168 25.62 61.5368 25.62ZM82.4382 26.78C82.4382 26.46 82.3249 26.1867 82.0982 25.96C81.8715 25.72 81.6049 25.5933 81.2982 25.58H77.4982V37.56C77.5115 37.9067 77.6382 38.2 77.8782 38.44C78.1315 38.68 78.4315 38.8 78.7782 38.8H79.0382V39H74.6582V38.8H74.9182C75.2649 38.8 75.5582 38.68 75.7982 38.44C76.0515 38.2 76.1849 37.9133 76.1982 37.58V25.58H72.3982C72.0782 25.5933 71.8049 25.72 71.5782 25.96C71.3649 26.1867 71.2582 26.46 71.2582 26.78V27.12L71.0582 27.14V24.62C71.2582 24.7 71.6049 24.78 72.0982 24.86C72.5915 24.94 73.0449 24.98 73.4582 24.98H80.2182C80.8715 24.98 81.4115 24.9333 81.8382 24.84C82.2782 24.7333 82.5449 24.66 82.6382 24.62V27.14L82.4382 27.12V26.78Z" fill="#343434"/>
<circle cx="62" cy="35" r="34.5" stroke="black"/>
</svg>
