<svg width="124" height="70" viewBox="0 0 124 70" fill="none" xmlns="http://www.w3.org/2000/svg">
<path d="M55.1082 38.8H55.2682V39H50.7682V38.8H50.9482C51.2282 38.8 51.4349 38.7133 51.5682 38.54C51.7149 38.3533 51.7882 38.18 51.7882 38.02C51.7882 37.86 51.7615 37.7 51.7082 37.54L50.4282 34.14H45.0282L43.6882 37.56C43.6349 37.72 43.6082 37.88 43.6082 38.04C43.6082 38.1867 43.6749 38.3533 43.8082 38.54C43.9549 38.7133 44.1682 38.8 44.4482 38.8H44.6282V39H40.6082V38.8H40.7882C41.1215 38.8 41.4482 38.6933 41.7682 38.48C42.0882 38.2667 42.3482 37.9533 42.5482 37.54L47.0682 26.78C47.5615 25.7 47.8082 25.0133 47.8082 24.72H47.9882L53.3482 37.54C53.5349 37.9533 53.7882 38.2667 54.1082 38.48C54.4282 38.6933 54.7615 38.8 55.1082 38.8ZM45.2682 33.54H50.1882L47.7882 27.12L45.2682 33.54Z" fill="white"/>
<path d="M62.3465 25.62H61.0665V37.54C61.0665 37.8867 61.1865 38.1867 61.4265 38.44C61.6798 38.68 61.9865 38.8 62.3465 38.8H62.5865L62.6065 39H58.2265V38.8H58.4865C58.8332 38.8 59.1265 38.68 59.3665 38.44C59.6198 38.2 59.7532 37.9067 59.7665 37.56V26.46C59.7532 26.1133 59.6198 25.82 59.3665 25.58C59.1265 25.3267 58.8332 25.2 58.4865 25.2H58.2265V25H63.6265C64.8398 25 65.7932 25.34 66.4865 26.02C67.1798 26.6867 67.5265 27.56 67.5265 28.64C67.5265 29.7067 67.1932 30.6333 66.5265 31.42C65.8732 32.1933 65.0732 32.58 64.1265 32.58C64.3265 32.6733 64.5598 32.86 64.8265 33.14C65.1065 33.4067 65.3532 33.6867 65.5665 33.98C66.7132 35.62 67.4598 36.6333 67.8065 37.02C68.1532 37.3933 68.3998 37.6533 68.5465 37.8C68.6932 37.9333 68.8532 38.0667 69.0265 38.2C69.1998 38.3333 69.3732 38.44 69.5465 38.52C69.9332 38.7067 70.3465 38.8 70.7865 38.8V39H69.6865C69.1132 39 68.5798 38.9 68.0865 38.7C67.5932 38.4867 67.2198 38.2733 66.9665 38.06C66.7265 37.8333 66.5132 37.62 66.3265 37.42C66.1532 37.2067 65.6598 36.5133 64.8465 35.34C64.0332 34.1667 63.5598 33.5 63.4265 33.34C63.2932 33.1667 63.1532 33 63.0065 32.84C62.5798 32.3867 62.1532 32.16 61.7265 32.16V31.96C61.8332 31.9733 61.9732 31.98 62.1465 31.98C62.3198 31.98 62.5332 31.9733 62.7865 31.96C64.4398 31.92 65.4798 31.2267 65.9065 29.88C65.9865 29.6133 66.0265 29.3667 66.0265 29.14C66.0265 28.9 66.0265 28.7467 66.0265 28.68C65.9998 27.7867 65.7665 27.0667 65.3265 26.52C64.8865 25.9733 64.2932 25.68 63.5465 25.64C63.2265 25.6267 62.8265 25.62 62.3465 25.62ZM83.2479 26.78C83.2479 26.46 83.1346 26.1867 82.9079 25.96C82.6812 25.72 82.4146 25.5933 82.1079 25.58H78.3079V37.56C78.3212 37.9067 78.4479 38.2 78.6879 38.44C78.9412 38.68 79.2412 38.8 79.5879 38.8H79.8479V39H75.4679V38.8H75.7279C76.0746 38.8 76.3679 38.68 76.6079 38.44C76.8612 38.2 76.9946 37.9133 77.0079 37.58V25.58H73.2079C72.8879 25.5933 72.6146 25.72 72.3879 25.96C72.1746 26.1867 72.0679 26.46 72.0679 26.78V27.12L71.8679 27.14V24.62C72.0679 24.7 72.4146 24.78 72.9079 24.86C73.4012 24.94 73.8546 24.98 74.2679 24.98H81.0279C81.6812 24.98 82.2212 24.9333 82.6479 24.84C83.0879 24.7333 83.3546 24.66 83.4479 24.62V27.14L83.2479 27.12V26.78Z" fill="#343434"/>
<path d="M97.2111 35C97.2111 54.0551 81.8072 69.5 62.8084 69.5C43.8095 69.5 28.4056 54.0551 28.4056 35C28.4056 15.9449 43.8095 0.5 62.8084 0.5C81.8072 0.5 97.2111 15.9449 97.2111 35Z" stroke="black"/>
</svg>
